PathFileType	4	(X/Y/Z)	Patient4_TMGait_0pt3_03_left_15.trc.trc
DataRate	CameraRate	NumFrames	NumMarkers	Units	OrigDataRate	OrigDataStartFrame	OrigNumFrames
48.951048951049	48.951048951049	5	33	mm	48.951048951049	1	       141
Frame#	Time	Sacral			L.Shoulder			Chest			R.Shoulder			Neck			R.ASIS			L.ASIS			R.Thigh.Superior			R.Thigh.Lateral			R.Thigh.Inferior			R.Patella			L.Thigh.Superior			L.Thigh.Lateral			L.Thigh.Inferior			L.Patella			L.Shank.Superior			L.Shank.Lateral			L.Shank.Inferior			R.Shank.Superior			R.Shank.Lateral			R.Shank.Inferior			R.Heel			R.Midfoot.Superior			R.Midfoot.Lateral			R.Toe			L.Heel			L.Midfoot.Lateral			L.Midfoot.Superior			L.Toe			L.Elbow			L.Wrist			R.Elbow			R.Wrist			
		X1	Y1	Z1	X2	Y2	Z2	X3	Y3	Z3	X4	Y4	Z4	X5	Y5	Z5	X6	Y6	Z6	X7	Y7	Z7	X8	Y8	Z8	X9	Y9	Z9	X10	Y10	Z10	X11	Y11	Z11	X12	Y12	Z12	X13	Y13	Z13	X14	Y14	Z14	X15	Y15	Z15	X16	Y16	Z16	X17	Y17	Z17	X18	Y18	Z18	X19	Y19	Z19	X20	Y20	Z20	X21	Y21	Z21	X22	Y22	Z22	X23	Y23	Z23	X24	Y24	Z24	X25	Y25	Z25	X26	Y26	Z26	X27	Y27	Z27	X28	Y28	Z28	X29	Y29	Z29	X30	Y30	Z30	X31	Y31	Z31	X32	Y32	Z32	X33	Y33	Z33	

1	27.270000000000	721.904268257863	990.943400939558	518.396203749865	884.013137109437	1429.131597662396	337.748237193353	988.020514721773	1366.266940291846	499.749524802673	898.431191503740	1434.576119722277	673.105530932922	859.528635516795	1487.860562935513	498.990453825585	956.596875815227	936.443559619210	633.343637601417	936.543751305340	958.932201386546	361.041095753430	1008.117628704803	739.901496870077	593.786005312551	937.433226961872	623.277390387225	653.404356622464	1013.802752963706	577.182647254461	568.332035942284	1019.263244385823	484.194430079259	572.982099906132	1015.296555535541	761.557653479237	377.901199786585	958.247147166007	638.688068339378	298.403181610534	1060.715670250352	569.559834729496	355.434209659840	1065.731030159313	480.145662471231	344.787096324611	994.645476073174	418.542511444941	337.692109667440	850.136986982709	386.544175333177	290.167321872983	828.901759621852	256.589182002270	339.981881784593	981.223344478007	394.886903094227	579.021827308314	905.108900095053	296.037360452565	643.701043188082	932.196266951831	199.771206923815	576.352234363259	783.223354455368	42.670702167947	553.918838580601	955.364843323999	96.032537872683	583.153553684198	868.908611329061	36.826161293103	625.691056351404	1076.641248250094	44.846965007167	608.236265796582	636.359332557098	222.757242164034	378.831744084140	682.445409154508	159.638133387401	302.824201857973	787.932036217465	147.665531672599	322.076338059991	842.840241268342	25.006357229176	304.376709472994	876.963164306236	1077.915531344835	213.483274000482	1043.862369315276	874.851415614442	191.412178596475	859.094302276085	1096.939102062775	813.241788790140	1019.975184011884	893.690567511197	848.745045976931	
2	27.290428571429	720.224831999596	989.584827713457	523.293409151211	880.206250671991	1427.563106166919	340.345950212511	986.696555819153	1364.876503540981	500.796494480606	900.044745198998	1433.609263308235	675.420481800350	858.709301663368	1486.644408937398	502.032083564825	956.326035894152	935.090182563938	635.298379853461	933.123123052392	958.224809839096	363.249797021803	1007.751272702384	738.658455248030	595.028777720480	937.272320283732	621.644131470368	654.241001869715	1013.346727318746	575.919866775558	568.692032971797	1018.646192323775	482.428623547237	572.825806204249	1015.306891059984	764.485607705092	381.058136329031	962.069571968730	641.056750537969	300.870022050410	1065.582779693732	573.965242869079	358.491095309804	1072.526629752504	484.185683550721	346.956369757173	1001.445727789082	421.846869620232	339.180201106562	856.162734107546	389.932386343412	293.164926973475	836.406988978303	258.926309669799	341.263485042629	979.443516605163	393.369089789207	578.992607052886	902.229474493431	295.301816608389	643.731341911050	927.759697944230	198.958231357354	576.162881144598	777.093166363228	42.777451091325	553.893861334003	949.267185737214	95.991381490740	583.203997901044	862.706865413365	36.883957190460	625.731541511746	1070.473719530459	44.527804008973	608.352528357958	644.661625301171	220.973463147584	382.786247946372	690.221509291597	161.572692961210	303.999830331093	796.254509587874	151.023679221544	321.159983106892	852.301086517353	28.950932690252	297.793042211492	863.851338817492	1075.690626843358	220.051432763712	1011.156157267800	861.743979302302	198.447971453895	867.722153550262	1095.662915789502	816.492759085945	1039.099908923387	902.820862333934	849.667460425376	
3	27.310857142857	718.503175334305	988.359268257437	528.219990833382	876.357770002922	1426.077652030695	342.964516207782	985.383925954248	1363.521226678641	501.793265318239	901.768633881964	1432.678677882635	677.718028990019	857.920866263507	1485.490651834766	505.091032726116	956.014807013125	933.754217422506	637.185249981397	929.573143733380	957.548980772676	365.424582349831	1007.197488644329	737.402717801453	596.187878887711	936.914357895207	620.052772014672	655.088422050537	1012.608799703595	574.649216816282	569.010806523604	1017.706159051988	480.677353112850	572.655839454690	1015.020157779022	767.352723607492	384.137929655827	965.455204303303	643.402998117024	303.258567711133	1069.981933247196	578.305084416860	361.428470891986	1078.877914370185	488.267205614114	348.988404477706	1008.068994839651	425.085662148940	340.504172000658	862.182822633762	392.545654606306	296.097752853272	844.620474763858	260.436156603299	342.368978653334	977.355186438156	391.872624433538	578.960969841948	899.094046910061	294.569797332857	643.781709508612	923.081416138889	198.156803093827	575.988160707043	770.762721866529	42.878309198903	553.878836322202	942.974184374819	95.950067282073	583.264409376475	856.309251532062	36.935364228428	625.775956604205	1064.109604832106	44.213432267570	608.467218278652	654.053931059664	217.330996384508	386.612679861244	699.229613166926	162.017174921000	305.012930204694	805.774525151474	153.501737209840	320.065504568350	863.580924340321	32.627941075027	290.888514529904	850.263954897013	1073.718516673779	226.657498508796	977.605734222003	849.257613150123	205.860732735172	876.694928218127	1094.409739766573	819.586526695418	1058.780553354322	912.704455579540	850.145468967956	
4	27.331285714286	716.777542089198	987.390147309297	533.020122751369	872.577980337825	1424.782746707397	345.516460508360	984.135260816016	1362.278298517921	502.666357019493	903.612364651369	1431.851192118474	679.895179950949	857.209952085510	1484.483143390573	508.064160624500	955.653674403883	932.502017446354	638.895138044347	925.947796076038	956.961540993889	367.463905678013	1006.373081208312	736.177613722760	597.184038450098	936.251707853951	618.589053894190	655.917306131293	1011.452670258268	573.417337544854	569.259284221701	1016.288978693784	479.020186215885	572.472082988070	1014.281194246896	770.031209702490	386.977511088079	968.031567102307	645.630147928776	305.443626244456	1073.493887885036	582.388628355850	364.073442218411	1084.310237975725	492.272043816606	350.748392495462	1014.169005234940	428.134568332847	341.553270699103	868.019207473315	393.949612117172	298.796185110077	853.612613825497	260.754560048527	343.182670124193	974.857965777149	390.471477276168	578.928811975701	895.666587790786	293.875505940294	643.860281222433	918.193667257713	197.407725252900	575.842399769503	764.346981248347	42.967866230566	553.878235907264	936.598623119098	95.908574206258	583.334516186692	849.835203256123	36.977213360542	625.825649173564	1057.666840948172	43.915233709926	608.575346348185	664.801940615332	211.215425708586	390.082569530532	709.820994095375	160.358392441160	305.741221965753	816.768906479573	154.686038305778	318.758188226963	877.156393833073	35.864557372574	283.831655118902	836.439397616532	1072.222371177908	233.091862609889	944.039189055562	838.141755090259	213.558995498830	885.884307389072	1093.261265699965	822.330604076177	1078.574448842153	923.408200338920	849.927267925298	
5	27.351714285714	715.078760780853	986.786516235414	537.577580896274	868.948698005387	1423.774712677266	347.929815415533	982.992140793204	1361.218475053239	503.348037141042	905.593896303922	1431.191213227962	681.861720375872	856.613984532092	1483.698282317720	510.865596921480	955.238854202025	931.396855565214	640.336781987037	922.282703079195	956.518518553622	369.281731676253	1005.201637568245	735.021590559620	597.957620168366	935.178339575285	617.328540698408	656.706041348092	1009.748462217190	572.265042088845	569.420500866511	1014.246316787907	477.527885699127	572.280086253781	1012.956562243979	772.420695707183	389.431421501985	969.483121244385	647.657766573193	307.322266604366	1075.764753920220	586.057918741877	366.278563448124	1088.424045576428	496.108460334584	352.128493574217	1019.454941631454	430.908285621181	342.247032847572	873.561735470218	393.824747975630	301.093007235040	863.454128278198	259.660331542300	343.612308425908	971.852008000501	389.232911397008	578.903595798752	891.899733033065	293.250770576759	643.976133492239	913.107278342910	196.747792034106	575.739922551838	757.927105377726	43.043079483741	553.894821238751	930.218867838025	95.865800171600	583.412247903212	843.368680047937	37.007927164846	625.882020722816	1051.227973436425	43.641313393899	608.673061333868	677.168395359798	202.268985689752	392.964429080056	722.331791928776	156.193783555437	306.073504989743	829.481080397077	154.312097418805	317.227734319464	893.389488251515	38.556663607695	276.858953978431	822.552303301695	1071.401790135911	239.192455793434	911.153986258944	828.991917559880	221.461866306493	895.208455119071	1092.300267341437	824.568255476820	1098.118219333774	935.022041547877	848.792983501726	
